<svg width="273" height="192" viewBox="0 0 273 192" fill="none" xmlns="http://www.w3.org/2000/svg">
<rect x="0.0581055" width="272" height="192" rx="5" fill="#F6F6F6"/>
<path d="M97.0941 91.13L93.8601 97.262V101H92.5721V97.262L89.3241 91.13H90.8081L93.2301 95.904L95.6381 91.13H97.0941ZM101.865 93.216C102.602 93.216 103.26 93.3747 103.839 93.692C104.427 94.0093 104.884 94.4667 105.211 95.064C105.547 95.6613 105.715 96.3613 105.715 97.164C105.715 97.9667 105.547 98.6667 105.211 99.264C104.884 99.852 104.427 100.305 103.839 100.622C103.26 100.939 102.602 101.098 101.865 101.098C101.128 101.098 100.465 100.939 99.8769 100.622C99.2983 100.305 98.8409 99.852 98.5049 99.264C98.1689 98.6667 98.0009 97.9667 98.0009 97.164C98.0009 96.3613 98.1689 95.6613 98.5049 95.064C98.8409 94.4667 99.2983 94.0093 99.8769 93.692C100.465 93.3747 101.128 93.216 101.865 93.216ZM101.865 94.336C101.408 94.336 100.983 94.4387 100.591 94.644C100.208 94.8493 99.8956 95.1667 99.6529 95.596C99.4196 96.016 99.3029 96.5387 99.3029 97.164C99.3029 97.78 99.4196 98.3027 99.6529 98.732C99.8956 99.152 100.208 99.4647 100.591 99.67C100.983 99.8753 101.408 99.978 101.865 99.978C102.322 99.978 102.742 99.8753 103.125 99.67C103.517 99.4647 103.83 99.152 104.063 98.732C104.306 98.3027 104.427 97.78 104.427 97.164C104.427 96.5387 104.306 96.016 104.063 95.596C103.83 95.1667 103.517 94.8493 103.125 94.644C102.742 94.4387 102.322 94.336 101.865 94.336ZM114.207 93.314V101H112.933V99.194C112.737 99.8193 112.387 100.3 111.883 100.636C111.388 100.963 110.81 101.126 110.147 101.126C109.26 101.126 108.542 100.841 107.991 100.272C107.44 99.6933 107.165 98.8673 107.165 97.794V93.314H108.439V97.668C108.439 98.4333 108.635 99.026 109.027 99.446C109.419 99.8567 109.951 100.062 110.623 100.062C111.323 100.062 111.883 99.838 112.303 99.39C112.723 98.9327 112.933 98.27 112.933 97.402V93.314H114.207ZM117.522 94.868C117.774 94.336 118.143 93.9253 118.628 93.636C119.113 93.3373 119.692 93.188 120.364 93.188V94.574H119.972C119.253 94.574 118.665 94.7607 118.208 95.134C117.751 95.498 117.522 96.1047 117.522 96.954V101H116.248V93.314H117.522V94.868ZM133.396 96.058C133.396 97.0567 133.195 97.9293 132.794 98.676C132.393 99.4133 131.8 99.9873 131.016 100.398C130.241 100.799 129.308 101 128.216 101H125.08V91.13H128.216C129.308 91.13 130.241 91.3307 131.016 91.732C131.8 92.124 132.393 92.6933 132.794 93.44C133.195 94.1773 133.396 95.05 133.396 96.058ZM128.118 99.852C129.406 99.852 130.391 99.5207 131.072 98.858C131.753 98.1953 132.094 97.262 132.094 96.058C132.094 94.854 131.753 93.9207 131.072 93.258C130.4 92.586 129.415 92.25 128.118 92.25H126.354V99.852H128.118ZM134.891 91.06C134.891 90.8267 134.971 90.64 135.129 90.5C135.288 90.3507 135.498 90.276 135.759 90.276C136.021 90.276 136.231 90.3507 136.389 90.5C136.548 90.64 136.627 90.8267 136.627 91.06C136.627 91.2933 136.548 91.4847 136.389 91.634C136.231 91.774 136.021 91.844 135.759 91.844C135.498 91.844 135.288 91.774 135.129 91.634C134.971 91.4847 134.891 91.2933 134.891 91.06ZM136.389 93.314V101H135.115V93.314H136.389ZM140.846 93.216C141.714 93.216 142.409 93.4447 142.932 93.902C143.464 94.35 143.786 94.9567 143.898 95.722H142.68C142.624 95.2647 142.432 94.8913 142.106 94.602C141.788 94.3033 141.359 94.154 140.818 94.154C140.36 94.154 140.001 94.266 139.74 94.49C139.488 94.7047 139.362 94.9987 139.362 95.372C139.362 95.652 139.446 95.8807 139.614 96.058C139.791 96.226 140.006 96.3567 140.258 96.45C140.519 96.534 140.874 96.6273 141.322 96.73C141.891 96.8607 142.348 96.996 142.694 97.136C143.048 97.2667 143.347 97.4813 143.59 97.78C143.842 98.0787 143.968 98.48 143.968 98.984C143.968 99.6093 143.73 100.118 143.254 100.51C142.787 100.902 142.162 101.098 141.378 101.098C140.463 101.098 139.716 100.879 139.138 100.44C138.559 100.001 138.218 99.39 138.116 98.606H139.348C139.394 99.0727 139.595 99.4507 139.95 99.74C140.314 100.029 140.79 100.174 141.378 100.174C141.816 100.174 142.157 100.062 142.4 99.838C142.652 99.614 142.778 99.32 142.778 98.956C142.778 98.6573 142.689 98.4193 142.512 98.242C142.334 98.0647 142.115 97.9293 141.854 97.836C141.592 97.7427 141.233 97.6447 140.776 97.542C140.206 97.4113 139.749 97.2807 139.404 97.15C139.068 97.0193 138.778 96.814 138.536 96.534C138.302 96.2447 138.186 95.8573 138.186 95.372C138.186 94.728 138.424 94.21 138.9 93.818C139.376 93.4167 140.024 93.216 140.846 93.216ZM149.072 93.216C150.052 93.216 150.864 93.4773 151.508 94C152.152 94.5227 152.549 95.2227 152.698 96.1H151.354C151.261 95.5493 151.004 95.12 150.584 94.812C150.173 94.4947 149.66 94.336 149.044 94.336C148.596 94.336 148.185 94.4387 147.812 94.644C147.448 94.8493 147.154 95.1667 146.93 95.596C146.706 96.016 146.594 96.5387 146.594 97.164C146.594 97.7893 146.706 98.3167 146.93 98.746C147.154 99.166 147.448 99.4787 147.812 99.684C148.185 99.8893 148.596 99.992 149.044 99.992C149.66 99.992 150.173 99.8333 150.584 99.516C151.004 99.1987 151.261 98.7647 151.354 98.214H152.698C152.549 99.1007 152.152 99.8053 151.508 100.328C150.864 100.841 150.052 101.098 149.072 101.098C148.335 101.098 147.681 100.939 147.112 100.622C146.543 100.305 146.095 99.852 145.768 99.264C145.451 98.6667 145.292 97.9667 145.292 97.164C145.292 96.3613 145.451 95.6613 145.768 95.064C146.095 94.4667 146.543 94.0093 147.112 93.692C147.681 93.3747 148.335 93.216 149.072 93.216ZM157.851 93.216C158.589 93.216 159.247 93.3747 159.825 93.692C160.413 94.0093 160.871 94.4667 161.197 95.064C161.533 95.6613 161.701 96.3613 161.701 97.164C161.701 97.9667 161.533 98.6667 161.197 99.264C160.871 99.852 160.413 100.305 159.825 100.622C159.247 100.939 158.589 101.098 157.851 101.098C157.114 101.098 156.451 100.939 155.863 100.622C155.285 100.305 154.827 99.852 154.491 99.264C154.155 98.6667 153.987 97.9667 153.987 97.164C153.987 96.3613 154.155 95.6613 154.491 95.064C154.827 94.4667 155.285 94.0093 155.863 93.692C156.451 93.3747 157.114 93.216 157.851 93.216ZM157.851 94.336C157.394 94.336 156.969 94.4387 156.577 94.644C156.195 94.8493 155.882 95.1667 155.639 95.596C155.406 96.016 155.289 96.5387 155.289 97.164C155.289 97.78 155.406 98.3027 155.639 98.732C155.882 99.152 156.195 99.4647 156.577 99.67C156.969 99.8753 157.394 99.978 157.851 99.978C158.309 99.978 158.729 99.8753 159.111 99.67C159.503 99.4647 159.816 99.152 160.049 98.732C160.292 98.3027 160.413 97.78 160.413 97.164C160.413 96.5387 160.292 96.016 160.049 95.596C159.816 95.1667 159.503 94.8493 159.111 94.644C158.729 94.4387 158.309 94.336 157.851 94.336ZM170.193 93.314V101H168.919V99.194C168.723 99.8193 168.373 100.3 167.869 100.636C167.375 100.963 166.796 101.126 166.133 101.126C165.247 101.126 164.528 100.841 163.977 100.272C163.427 99.6933 163.151 98.8673 163.151 97.794V93.314H164.425V97.668C164.425 98.4333 164.621 99.026 165.013 99.446C165.405 99.8567 165.937 100.062 166.609 100.062C167.309 100.062 167.869 99.838 168.289 99.39C168.709 98.9327 168.919 98.27 168.919 97.402V93.314H170.193ZM176.28 93.188C177.176 93.188 177.9 93.4773 178.45 94.056C179.001 94.6253 179.276 95.4513 179.276 96.534V101H178.002V96.646C178.002 95.8807 177.806 95.2927 177.414 94.882C177.022 94.4713 176.49 94.266 175.818 94.266C175.118 94.266 174.558 94.4947 174.138 94.952C173.718 95.4 173.508 96.058 173.508 96.926V101H172.234V93.314H173.508V95.134C173.704 94.5087 174.05 94.028 174.544 93.692C175.048 93.356 175.627 93.188 176.28 93.188ZM184.898 99.88V101H183.946C183.162 101 182.574 100.813 182.182 100.44C181.8 100.067 181.608 99.4413 181.608 98.564V94.42H180.46V93.314H181.608V91.396H182.896V93.314H184.884V94.42H182.896V98.592C182.896 99.0867 182.985 99.4273 183.162 99.614C183.349 99.7913 183.666 99.88 184.114 99.88H184.898ZM191.186 91.13V101H189.912V91.13H191.186ZM202.684 93.188C203.58 93.188 204.299 93.4773 204.84 94.056C205.391 94.6253 205.666 95.4513 205.666 96.534V101H204.392V96.646C204.392 95.89 204.206 95.3113 203.832 94.91C203.468 94.5087 202.964 94.308 202.32 94.308C201.648 94.308 201.107 94.532 200.696 94.98C200.295 95.4187 200.094 96.0673 200.094 96.926V101H198.82V96.646C198.82 95.89 198.634 95.3113 198.26 94.91C197.887 94.5087 197.383 94.308 196.748 94.308C196.067 94.308 195.521 94.532 195.11 94.98C194.709 95.4187 194.508 96.0673 194.508 96.926V101H193.234V93.314H194.508V95.064C194.695 94.4573 195.026 93.9953 195.502 93.678C195.988 93.3513 196.543 93.188 197.168 93.188C197.822 93.188 198.386 93.356 198.862 93.692C199.348 94.0187 199.693 94.504 199.898 95.148C200.113 94.5227 200.472 94.042 200.976 93.706C201.48 93.3607 202.05 93.188 202.684 93.188ZM210.795 93.216C211.541 93.216 212.171 93.4027 212.685 93.776C213.207 94.1493 213.571 94.6487 213.777 95.274V93.314H215.051V101H213.777V99.04C213.571 99.6653 213.207 100.165 212.685 100.538C212.171 100.911 211.541 101.098 210.795 101.098C210.113 101.098 209.507 100.939 208.975 100.622C208.443 100.305 208.023 99.852 207.715 99.264C207.416 98.6667 207.267 97.9667 207.267 97.164C207.267 96.3613 207.416 95.6613 207.715 95.064C208.023 94.4667 208.443 94.0093 208.975 93.692C209.507 93.3747 210.113 93.216 210.795 93.216ZM211.159 94.35C210.375 94.35 209.745 94.602 209.269 95.106C208.802 95.6007 208.569 96.2867 208.569 97.164C208.569 98.0413 208.802 98.732 209.269 99.236C209.745 99.7307 210.375 99.978 211.159 99.978C211.663 99.978 212.111 99.8613 212.503 99.628C212.904 99.3947 213.217 99.068 213.441 98.648C213.665 98.2187 213.777 97.724 213.777 97.164C213.777 96.604 213.665 96.1093 213.441 95.68C213.217 95.2507 212.904 94.924 212.503 94.7C212.111 94.4667 211.663 94.35 211.159 94.35ZM220.228 93.216C220.975 93.216 221.605 93.4027 222.118 93.776C222.641 94.1493 223.005 94.6487 223.21 95.274V93.314H224.484V101.126C224.484 101.835 224.335 102.465 224.036 103.016C223.737 103.567 223.317 103.996 222.776 104.304C222.235 104.612 221.605 104.766 220.886 104.766C219.85 104.766 219.005 104.514 218.352 104.01C217.699 103.515 217.283 102.843 217.106 101.994H218.366C218.515 102.507 218.795 102.909 219.206 103.198C219.626 103.497 220.163 103.646 220.816 103.646C221.507 103.646 222.076 103.422 222.524 102.974C222.981 102.535 223.21 101.919 223.21 101.126V99.04C223.005 99.6653 222.641 100.165 222.118 100.538C221.605 100.911 220.975 101.098 220.228 101.098C219.547 101.098 218.94 100.939 218.408 100.622C217.876 100.305 217.456 99.852 217.148 99.264C216.849 98.6667 216.7 97.9667 216.7 97.164C216.7 96.3613 216.849 95.6613 217.148 95.064C217.456 94.4667 217.876 94.0093 218.408 93.692C218.94 93.3747 219.547 93.216 220.228 93.216ZM220.592 94.35C219.808 94.35 219.178 94.602 218.702 95.106C218.235 95.6007 218.002 96.2867 218.002 97.164C218.002 98.0413 218.235 98.732 218.702 99.236C219.178 99.7307 219.808 99.978 220.592 99.978C221.096 99.978 221.544 99.8613 221.936 99.628C222.337 99.3947 222.65 99.068 222.874 98.648C223.098 98.2187 223.21 97.724 223.21 97.164C223.21 96.604 223.098 96.1093 222.874 95.68C222.65 95.2507 222.337 94.924 221.936 94.7C221.544 94.4667 221.096 94.35 220.592 94.35ZM233.582 96.73C233.582 97.0007 233.563 97.234 233.526 97.43H227.38C227.408 98.3073 227.655 98.9653 228.122 99.404C228.598 99.8427 229.176 100.062 229.858 100.062C230.474 100.062 230.987 99.908 231.398 99.6C231.818 99.2827 232.074 98.8627 232.168 98.34H233.526C233.432 98.872 233.222 99.348 232.896 99.768C232.578 100.188 232.163 100.515 231.65 100.748C231.136 100.981 230.558 101.098 229.914 101.098C229.176 101.098 228.523 100.939 227.954 100.622C227.384 100.305 226.936 99.852 226.61 99.264C226.292 98.6667 226.134 97.9667 226.134 97.164C226.134 96.3613 226.292 95.6613 226.61 95.064C226.936 94.4667 227.384 94.0093 227.954 93.692C228.523 93.3747 229.176 93.216 229.914 93.216C230.66 93.216 231.309 93.3747 231.86 93.692C232.42 94.0093 232.844 94.434 233.134 94.966C233.432 95.498 233.582 96.086 233.582 96.73ZM232.294 96.814C232.322 96.2447 232.228 95.7687 232.014 95.386C231.799 95.0033 231.505 94.7187 231.132 94.532C230.758 94.3453 230.352 94.252 229.914 94.252C229.214 94.252 228.626 94.4713 228.15 94.91C227.674 95.3393 227.417 95.974 227.38 96.814H232.294Z" fill="#BBBBBB"/>
<g clip-path="url(#clip0)">
<path d="M64.7682 87.2144C62.7701 87.2144 61.1445 88.84 61.1445 90.8381C61.1445 92.8361 62.7701 94.4617 64.7682 94.4617C66.7663 94.4617 68.3919 92.8362 68.3919 90.8381C68.3919 88.8398 66.7664 87.2144 64.7682 87.2144ZM64.7682 93.0555C63.5455 93.0555 62.5508 92.0608 62.5508 90.8381C62.5508 89.6153 63.5455 88.6206 64.7682 88.6206C65.9909 88.6206 66.9857 89.6153 66.9857 90.8381C66.9857 92.0606 65.991 93.0555 64.7682 93.0555Z" fill="#BBBBBB"/>
<path d="M64.793 109.723C64.7754 109.68 64.7537 109.639 64.7283 109.601C64.703 109.562 64.6735 109.526 64.6412 109.494C64.6088 109.462 64.5729 109.432 64.5343 109.407C64.4963 109.381 64.4555 109.36 64.4126 109.342C64.3704 109.325 64.3262 109.31 64.2812 109.302C64.1905 109.284 64.0976 109.284 64.0069 109.302C63.9619 109.31 63.9176 109.325 63.8754 109.342C63.8326 109.36 63.7918 109.381 63.7538 109.407C63.7151 109.432 63.6793 109.462 63.6469 109.494C63.6146 109.526 63.5851 109.562 63.5597 109.601C63.5344 109.639 63.5126 109.68 63.4951 109.723C63.4775 109.765 63.4634 109.809 63.455 109.854C63.4458 109.899 63.4409 109.945 63.4409 109.991C63.4409 110.037 63.4458 110.083 63.455 110.128C63.4634 110.173 63.4775 110.218 63.4951 110.26C63.5126 110.303 63.5344 110.343 63.5597 110.381C63.5851 110.42 63.6146 110.456 63.6469 110.488C63.663 110.504 63.6801 110.52 63.6978 110.534C63.7157 110.549 63.7344 110.563 63.7538 110.575C63.7918 110.601 63.8326 110.623 63.8754 110.64C63.9176 110.658 63.9619 110.672 64.0069 110.68C64.0519 110.689 64.0983 110.694 64.144 110.694C64.1897 110.694 64.2362 110.689 64.2812 110.68C64.3262 110.672 64.3704 110.658 64.4126 110.64C64.4555 110.623 64.4963 110.601 64.5343 110.575C64.5537 110.563 64.5724 110.549 64.5903 110.534C64.6081 110.52 64.6251 110.504 64.6412 110.488C64.6735 110.456 64.703 110.42 64.7283 110.381C64.7537 110.343 64.7754 110.303 64.793 110.26C64.8106 110.218 64.8247 110.173 64.8338 110.128C64.8429 110.083 64.8472 110.037 64.8472 109.991C64.8472 109.945 64.8429 109.899 64.8338 109.854C64.8247 109.809 64.8106 109.765 64.793 109.723Z" fill="#BBBBBB"/>
<path d="M53.7276 81.8976C53.71 81.8554 53.6882 81.8146 53.6629 81.7759C53.6376 81.7379 53.6081 81.7014 53.5757 81.669C53.5434 81.6367 53.5075 81.6072 53.4688 81.5819C53.4309 81.5565 53.3901 81.5347 53.3472 81.5172C53.305 81.4996 53.2607 81.4862 53.2157 81.4771C53.125 81.4588 53.0322 81.4588 52.9415 81.4771C52.8965 81.4862 52.8522 81.4996 52.8093 81.5172C52.7671 81.5347 52.7263 81.5565 52.6884 81.5819C52.6497 81.6072 52.6138 81.6367 52.5815 81.669C52.5492 81.7014 52.5196 81.7379 52.4936 81.7759C52.4683 81.8146 52.4472 81.8554 52.4296 81.8976C52.4121 81.9397 52.398 81.984 52.3896 82.029C52.3804 82.0747 52.3755 82.1204 52.3755 82.1669C52.3755 82.2126 52.3804 82.2583 52.3896 82.304C52.398 82.349 52.4121 82.3933 52.4296 82.4354C52.4472 82.4776 52.4683 82.5184 52.4936 82.5571C52.5196 82.5951 52.5492 82.6316 52.5815 82.664C52.6138 82.6963 52.6497 82.7258 52.6884 82.7512C52.7263 82.7765 52.7671 82.7983 52.8093 82.8158C52.8522 82.8334 52.8965 82.8468 52.9415 82.8559C52.9865 82.8651 53.0329 82.87 53.0786 82.87C53.1243 82.87 53.1707 82.8651 53.2157 82.8559C53.2607 82.8468 53.305 82.8334 53.3472 82.8158C53.3901 82.7983 53.4309 82.7765 53.4688 82.7512C53.5075 82.7258 53.5434 82.6963 53.5757 82.664C53.6081 82.6316 53.6376 82.5951 53.6629 82.5571C53.6882 82.5184 53.71 82.4776 53.7276 82.4354C53.7452 82.3933 53.7592 82.349 53.7677 82.304C53.7768 82.2583 53.7817 82.2126 53.7817 82.1669C53.7817 82.1204 53.7768 82.0747 53.7677 82.029C53.7592 81.984 53.7452 81.9397 53.7276 81.8976Z" fill="#BBBBBB"/>
<path d="M70.1296 81.4668C69.708 79.6844 68.1046 78.3538 66.1952 78.3538H44.1343C40.7839 78.3537 38.0581 81.0795 38.0581 84.4299V106.491C38.0581 108.682 39.8101 110.47 41.9866 110.532C42.4082 112.314 44.0116 113.645 45.921 113.645H70.0144C72.2441 113.645 74.0581 111.831 74.0581 109.601V104.295V85.5074C74.0581 83.3165 72.3061 81.5282 70.1296 81.4668ZM72.6519 109.601C72.6519 111.055 71.4687 112.238 70.0144 112.238H45.921C44.7953 112.238 43.8326 111.529 43.4548 110.535C43.3445 110.244 43.2836 109.93 43.2836 109.601V109.128V105.871L51.3502 92.1933C51.5958 91.7769 52.0338 91.5338 52.5143 91.5415C52.9977 91.5498 53.4243 91.8081 53.6555 92.2327L57.1286 98.6102L62.1771 107.88C62.3047 108.115 62.546 108.247 62.7952 108.247C62.9089 108.247 63.0241 108.22 63.1309 108.162C63.4719 107.976 63.5979 107.549 63.4122 107.208L61.7739 104.2C62.4932 104.233 63.2007 104 63.7641 103.532L66.9261 100.909C67.4332 100.489 68.1819 100.507 68.6677 100.952L68.8328 101.104L70.239 102.393L72.6519 104.605V109.601ZM72.6519 102.697L70.2389 100.485L68.8327 99.4142C67.9165 99.031 66.827 99.1643 66.0282 99.8269L62.8662 102.45C62.5184 102.739 62.0643 102.855 61.6205 102.77C61.1767 102.685 60.7982 102.408 60.5821 102.011L58.3636 97.9375L57.1248 95.6629L54.8905 91.5601C54.4139 90.685 53.5346 90.1524 52.5383 90.1354C51.5424 90.1198 50.6451 90.6206 50.1389 91.4789L43.2835 103.103V85.5074C43.2835 84.0532 44.4667 82.87 45.9209 82.87H50.2657C50.654 82.87 50.9688 82.5552 50.9688 82.1669C50.9688 81.7785 50.654 81.4638 50.2657 81.4638H45.9209C43.6913 81.4638 41.8773 83.2777 41.8773 85.5074V105.679V109.118C40.5278 109.004 39.4644 107.869 39.4644 106.491V84.4299C39.4644 81.8548 41.5593 79.7599 44.1343 79.7599H66.1952C67.3209 79.7599 68.2836 80.469 68.6614 81.4638H55.8907C55.5024 81.4638 55.1876 81.7786 55.1876 82.1669C55.1876 82.5553 55.5024 82.8701 55.8907 82.8701H68.8326L70.2389 82.8803C71.5885 82.9947 72.6519 84.1288 72.6519 85.5074V102.697Z" fill="#BBBBBB"/>
</g>
<defs>
<clipPath id="clip0">
<rect width="36" height="36" fill="white" transform="translate(38.0581 78)"/>
</clipPath>
</defs>
</svg>
