  <svg width="41" height="43" viewBox="0 0 41 43" fill="none" xmlns="http://www.w3.org/2000/svg">
    <path d="M34.9655 38.4785H4.33434V32.1085H28.5667H28.8041L28.6382 31.9387L27.4781 30.7506L27.4487 30.7205H27.4065H9.93863L19.1835 22.3823L19.2607 22.3126L19.1881 22.2382L18.3482 21.3768L18.2811 21.308L18.2096 21.3724L7.85148 30.7205H4.33434V7.04141V7.00078L4.306 6.97166L3.09754 5.73014L2.92588 5.55378V5.79989V39.1725C2.92588 39.5561 3.24417 39.8666 3.63011 39.8666H36.1256H36.363L36.1971 39.6967L35.037 38.5086L35.0076 38.4785H34.9655Z" fill="#BBBBBB" stroke="#BBBBBB" strokeWidth="0.2" />
    <path d="M6.80807 5.31174H36.7806V24.5459L29.445 17.5664L29.4442 17.5657C29.1785 17.3183 28.7575 17.3025 28.4816 17.5524C28.4814 17.5526 28.4812 17.5528 28.481 17.5529L23.2978 22.126L23.219 22.1956L23.2924 22.2708L24.1322 23.1322L24.1987 23.2003L24.27 23.1373L28.9385 19.016L36.7806 26.4675V30.7204H31.7628H31.5253L31.6912 30.8903L32.8513 32.0783L32.8808 32.1085H32.9229H36.7806V36.0716V36.1123L36.8089 36.1414L38.0174 37.3829L38.189 37.5593V37.3132V4.61771C38.189 4.23417 37.8707 3.92368 37.4848 3.92368H5.64795H5.41053L5.5764 4.09355L6.73652 5.28161L6.76595 5.31174H6.80807Z" fill="#BBBBBB" stroke="#BBBBBB" strokeWidth="0.2" />
    <path d="M9.42923 12.229L9.33055 12.1275L9.26786 12.2545C8.95907 12.8799 8.78623 13.5841 8.78623 14.3303C8.78623 16.9949 10.9958 19.1647 13.7019 19.1647C14.3804 19.1647 15.028 19.0253 15.6198 18.7768L15.7555 18.7198L15.6526 18.6146L14.7341 17.6761L14.6923 17.6333L14.6349 17.6499C14.3367 17.7362 14.0258 17.7767 13.7019 17.7767C11.7676 17.7767 10.1947 16.2279 10.1947 14.3303C10.1947 13.9608 10.2534 13.6031 10.3648 13.2689L10.384 13.2112L10.3416 13.1676L9.42923 12.229Z" fill="#BBBBBB" stroke="#BBBBBB" strokeWidth="0.2" />
    <path d="M16.9318 15.7078V15.7487L16.9605 15.7779L17.8547 16.6868L17.948 16.7816L18.0132 16.6657C18.402 15.9739 18.6242 15.173 18.6242 14.3296C18.6242 11.6589 16.4145 9.49521 13.7025 9.49521C12.9194 9.49521 12.1791 9.6771 11.519 10.0046L11.3963 10.0655L11.4917 10.1639L12.3799 11.0787L12.4259 11.126L12.4875 11.1024C12.8623 10.9584 13.273 10.8833 13.7025 10.8833C15.643 10.8833 17.2157 12.4264 17.2157 14.3296C17.2157 14.8025 17.116 15.2525 16.9399 15.6624L16.9318 15.6813V15.7018V15.7078Z" fill="#BBBBBB" stroke="#BBBBBB" strokeWidth="0.2" />
    <path d="M40.5696 41.2461L40.6 41.2166V41.1743C40.6 41.1352 40.5808 41.1074 40.572 41.0958C40.5628 41.0838 40.5518 41.0731 40.5467 41.0681C40.5464 41.0678 40.5462 41.0676 40.5459 41.0673L38.1608 38.6215L38.1607 38.6214L36.9523 37.38L36.9523 37.3799L31.6473 31.9387L31.6471 31.9386L30.4932 30.7507L30.4931 30.7505L23.5505 23.6282L23.5505 23.6281L19.9614 19.9392L19.932 19.909H19.9259L17.4297 17.3433L17.4294 17.343L16.5898 16.4879L16.5895 16.4876L11.6412 11.403L11.6411 11.4029L10.8012 10.5416L10.8012 10.5416L5.53245 5.142L5.5323 5.14184L4.37838 3.95394L4.37825 3.95381L1.46053 0.960883C1.43759 0.929397 1.40584 0.914767 1.39759 0.910962C1.39693 0.910659 1.39642 0.910425 1.39608 0.910256L1.33291 0.879206L1.28237 0.928191L0.430405 1.75389L0.4 1.78336V1.8257C0.4 1.86185 0.417714 1.88667 0.424271 1.89527C0.431021 1.90411 0.43872 1.91166 0.441344 1.91421L2.98419 4.52103L2.98431 4.52115L4.16244 5.73285L4.16252 5.73293L9.81207 11.5307L9.8121 11.5307L10.658 12.398L10.658 12.398L15.54 17.4054L15.5402 17.4057L16.3859 18.2787L16.3861 18.2789L18.9178 20.8748L19.7577 21.7361L28.682 30.89L28.6822 30.8902L29.8361 32.0781L29.8362 32.0782L36.241 38.6481L36.2411 38.6482L37.395 39.8361L37.3952 39.8363L39.5342 42.0283L39.5356 42.0297L39.5779 42.0713L39.648 42.1402L39.7181 42.0714L39.7237 42.0659L39.7241 42.0654L40.5696 41.2461Z" fill="#BBBBBB" stroke="#BBBBBB" strokeWidth="0.2" />
  </svg>